<?xml version="1.0" standalone="no"?>
<!DOCTYPE svg PUBLIC "-//W3C//DTD SVG 20010904//EN"
 "http://www.w3.org/TR/2001/REC-SVG-20010904/DTD/svg10.dtd">
<svg version="1.0" xmlns="http://www.w3.org/2000/svg"
 width="512.000000pt" height="514.000000pt" viewBox="0 0 512.000000 514.000000"
 preserveAspectRatio="xMidYMid meet">
<metadata>
Created by potrace 1.16, written by Peter Selinger 2001-2019
</metadata>
<g transform="translate(0.000000,514.000000) scale(0.100000,-0.100000)"
fill="#000000" stroke="none">
<path d="M2345 4994 c-183 -19 -412 -69 -585 -129 -139 -48 -400 -177 -525
-260 -826 -551 -1235 -1520 -1049 -2487 186 -965 942 -1724 1909 -1917 288
-57 667 -56 958 4 360 75 751 259 1027 485 183 149 374 361 503 555 265 401
401 856 400 1340 -1 922 -530 1767 -1358 2170 -222 108 -458 182 -700 221 -96
15 -488 27 -580 18z m446 -14 c994 -96 1831 -799 2094 -1757 67 -242 80 -347
80 -643 0 -290 -12 -387 -74 -626 -173 -660 -646 -1234 -1265 -1538 -227 -111
-455 -183 -706 -222 -163 -26 -549 -26 -710 -1 -1062 168 -1871 981 -2031
2042 -28 183 -30 472 -5 660 150 1123 1059 1989 2191 2088 91 8 330 6 426 -3z"/>
<path d="M2277 4594 c-165 -26 -430 -96 -551 -145 -88 -37 -238 -121 -332
-188 -78 -54 -324 -285 -418 -390 -126 -142 -274 -401 -346 -606 -80 -230
-114 -434 -114 -690 0 -257 34 -462 114 -689 183 -517 591 -958 1093 -1184
l100 -45 141 6 c156 6 251 25 421 82 251 85 446 208 657 413 37 36 70 63 73
60 8 -8 -70 -129 -149 -233 -118 -157 -299 -320 -462 -417 -30 -18 -54 -36
-54 -40 0 -5 50 -8 112 -8 135 0 151 7 289 118 139 112 316 304 411 447 97
146 147 249 184 375 15 52 31 99 36 104 11 14 10 -82 -2 -184 -24 -193 -91
-419 -181 -609 -33 -68 -57 -126 -54 -129 6 -6 103 33 206 84 l85 42 46 139
c57 169 70 217 108 418 90 471 51 727 -140 921 -140 143 -327 203 -595 190
-251 -12 -439 -71 -662 -207 -342 -210 -593 -516 -764 -934 -36 -88 -64 -141
-74 -143 -9 -2 -57 38 -118 100 -166 166 -284 363 -334 557 -33 129 -35 327
-4 443 35 133 120 309 196 403 28 35 40 29 24 -11 -30 -78 -70 -261 -81 -366
-22 -215 20 -440 113 -599 35 -61 145 -209 154 -209 3 0 21 33 41 73 53 105
129 219 218 325 117 139 246 251 506 437 52 37 97 69 99 71 2 2 -2 15 -9 29
-20 37 -5 48 140 99 228 80 437 116 681 116 534 0 836 -288 915 -870 12 -91
14 -170 9 -380 l-6 -265 51 55 c187 200 333 431 427 673 l33 87 -16 63 c-22
86 -92 230 -148 304 -26 35 -91 104 -144 154 l-97 91 39 -6 c47 -6 186 -71
254 -118 26 -18 79 -60 119 -95 84 -74 78 -83 93 123 15 205 -8 460 -59 651
-11 39 -15 42 -81 67 -147 54 -435 94 -595 81 -281 -21 -496 -87 -954 -294
-108 -49 -223 -97 -256 -107 -78 -23 -192 -23 -283 0 -60 15 -91 17 -180 11
-171 -12 -385 -11 -406 1 -16 10 -10 14 50 34 194 64 243 109 437 400 193 289
276 376 502 527 236 157 259 155 100 -8 -160 -165 -254 -281 -323 -400 -91
-156 -78 -147 280 202 191 186 283 269 294 265 21 -8 44 -68 44 -115 0 -52 8
-71 31 -71 10 0 65 29 121 63 256 158 425 231 653 282 l30 7 -45 40 c-151 133
-308 245 -446 317 l-62 33 -113 -30 c-63 -16 -148 -37 -189 -47 -214 -50 -589
-221 -829 -379 -239 -156 -523 -403 -657 -570 -69 -87 -182 -249 -229 -331
-34 -59 -39 -128 -11 -170 10 -15 15 -29 13 -31 -7 -8 -168 35 -185 48 -50 42
-35 91 103 339 165 296 204 349 409 554 180 179 334 308 494 413 94 61 439
231 582 286 144 56 144 56 134 66 -34 34 -534 51 -707 24z m444 -4 c224 -13
243 -22 142 -66 -561 -243 -761 -372 -1109 -719 -184 -184 -241 -262 -407
-561 -147 -265 -156 -314 -64 -354 49 -22 165 -46 174 -36 4 3 -1 22 -10 41
-31 65 -23 112 35 209 180 301 481 604 839 841 157 105 454 257 622 318 126
46 467 137 513 137 71 0 504 -302 504 -351 0 -12 -15 -21 -52 -29 -153 -36
-347 -125 -565 -256 -67 -41 -126 -74 -132 -74 -12 0 -18 23 -24 93 -5 48 -36
97 -63 97 -7 0 -128 -113 -270 -250 -166 -162 -261 -247 -267 -241 -24 24 107
194 300 392 73 75 133 142 133 148 0 63 -395 -197 -540 -356 -29 -32 -119
-157 -200 -278 -81 -121 -169 -242 -196 -268 -61 -61 -127 -98 -231 -132 -46
-14 -85 -30 -88 -35 -10 -17 38 -32 135 -43 82 -9 111 -8 183 6 111 22 202 21
307 -3 171 -39 243 -24 555 118 355 161 598 243 798 271 110 15 333 13 456 -4
121 -17 161 -27 258 -61 83 -30 79 -21 114 -209 32 -169 38 -588 9 -635 -8
-12 -14 -11 -37 8 -166 134 -273 197 -383 226 -90 23 -85 5 28 -100 56 -53
123 -123 148 -155 52 -68 126 -218 147 -300 14 -54 13 -58 -13 -130 -61 -167
-156 -339 -273 -495 -103 -137 -161 -199 -175 -190 -9 6 -11 63 -6 239 5 185
3 257 -10 353 -51 384 -213 653 -470 779 -136 67 -221 87 -409 92 -173 6 -330
-7 -477 -38 -104 -23 -313 -90 -374 -121 -36 -18 -38 -22 -33 -54 7 -39 24
-23 -203 -190 -199 -147 -399 -347 -502 -504 -42 -63 -87 -136 -99 -162 -12
-26 -28 -49 -35 -52 -14 -5 -64 52 -116 134 -88 138 -118 230 -138 422 -15
148 -3 275 46 453 19 72 37 140 41 153 9 34 -21 28 -54 -13 -78 -95 -166 -274
-200 -411 -26 -103 -23 -323 5 -429 44 -167 123 -318 246 -471 94 -117 213
-223 234 -210 6 3 31 59 57 123 89 226 235 471 373 629 168 193 445 383 680
468 229 82 540 96 724 31 202 -70 344 -223 399 -431 24 -92 28 -279 9 -429
-35 -277 -155 -726 -203 -760 -38 -27 -208 -97 -222 -91 -11 4 -6 23 25 88
115 246 198 582 188 763 -2 33 -7 60 -13 60 -5 0 -30 -61 -56 -135 -81 -242
-189 -411 -407 -641 -82 -86 -250 -226 -309 -258 -31 -16 -164 -25 -183 -11
-18 12 -8 22 120 115 154 112 315 290 435 480 50 80 58 105 36 105 -5 0 -59
-47 -121 -105 -207 -192 -393 -304 -635 -384 -165 -54 -258 -72 -411 -78
l-131 -6 -136 66 c-221 106 -365 206 -541 377 -186 181 -312 355 -421 583
-313 656 -258 1416 147 2022 117 176 387 443 573 567 220 146 505 249 830 298
141 21 221 23 446 10z"/>
<path d="M1409 2709 c-53 -57 -89 -133 -89 -186 0 -33 4 -43 16 -43 13 0 184
168 192 189 5 13 -44 76 -62 79 -11 2 -32 -13 -57 -39z m93 -7 l20 -32 -88
-90 c-48 -50 -91 -90 -96 -90 -16 0 -7 66 16 116 28 61 93 136 113 132 8 -2
23 -18 35 -36z"/>
<path d="M3879 3795 c-233 -37 -427 -111 -692 -264 -97 -56 -99 -56 -126 -40
-28 18 -57 6 -181 -77 -151 -101 -291 -209 -366 -282 -78 -76 -166 -181 -159
-191 9 -15 134 -22 200 -11 90 14 157 41 258 103 157 95 224 169 263 288 10
29 32 68 48 86 44 46 193 126 289 156 155 49 169 45 85 -18 -115 -87 -318
-301 -318 -336 0 -5 40 11 90 36 187 94 389 163 555 190 117 19 345 19 486 -1
61 -8 113 -13 116 -11 16 17 -188 356 -226 376 -27 15 -216 12 -322 -4z m344
-37 c32 -38 112 -167 152 -247 18 -36 23 -57 16 -64 -6 -6 -42 -6 -108 3 -138
18 -348 15 -468 -5 -122 -21 -282 -71 -435 -137 -63 -27 -121 -52 -127 -55 -7
-3 -13 2 -13 10 0 24 83 117 176 197 155 133 150 128 138 140 -28 29 -296 -75
-412 -159 -43 -32 -51 -46 -93 -155 -31 -82 -108 -161 -230 -237 -135 -83
-215 -110 -331 -110 -50 -1 -95 4 -101 10 -15 15 9 46 111 149 94 96 218 193
405 317 l117 78 39 -13 c38 -12 42 -11 113 29 140 80 347 178 440 209 169 56
344 83 493 77 88 -4 91 -5 118 -37z"/>
</g>
</svg>
